<?xml version="1.0" encoding="utf-8"?>
<!-- Uploaded to: SVG Repo, www.svgrepo.com, Generator: SVG Repo Mixer Tools -->
<svg width="800px" height="800px" viewBox="-0.89 0 80.79 80.79" xmlns="http://www.w3.org/2000/svg">
  <g id="Game_developement" data-name="Game developement" transform="translate(-240.337 -389.352)">
    <g id="Group_34" data-name="Group 34">
      <g id="Group_33" data-name="Group 33">
        <g id="Group_32" data-name="Group 32">
          <g id="Group_31" data-name="Group 31">
            <path id="Path_73" data-name="Path 73" d="M319.03,454.132a13.11,13.11,0,1,1-25.58,5.76l-.989-4.48h-5.77a3.01,3.01,0,0,1-2.891-2.181l-1.16-4.089h-5.28l-1.16,4.089a3.01,3.01,0,0,1-2.89,2.181h-6.079l-.991,4.47a13.111,13.111,0,1,1-25.58-5.771s3.93-17.09,5.35-22.759a18.716,18.716,0,0,1,7.14-10.47,3.125,3.125,0,0,1-.12-.821V413.3a3,3,0,0,1,2.14-2.87l5.46-1.641c.07-.159.13-.319.2-.48l-2.7-5.02a2.986,2.986,0,0,1,.52-3.539l4.78-4.78a2.982,2.982,0,0,1,3.54-.52l5.02,2.7c.16-.07.32-.13.48-.2l1.64-5.46a3,3,0,0,1,2.871-2.14h6.759a3,3,0,0,1,2.88,2.14l1.64,5.46c.16.069.31.129.471.2l5.029-2.7a2.982,2.982,0,0,1,3.54.52l4.78,4.78a3,3,0,0,1,.52,3.55l-2.7,5.019c.07.151.13.311.2.47l5.46,1.641a3,3,0,0,1,2.14,2.87v6.759a3.045,3.045,0,0,1-.28,1.25,19.177,19.177,0,0,1,6.87,11.241Zm-11.23,9.83a7.137,7.137,0,0,0,5.37-8.53l-1.84-8.371a19.041,19.041,0,0,1-12.78,8.09l.76,3.441a7.1,7.1,0,0,0,8.49,5.37Zm.86-27.671a13.108,13.108,0,0,0-13.05-13.129H264.39a13.125,13.125,0,0,0,0,26.25h6.66l1.161-4.091a3,3,0,0,1,2.879-2.179h9.81a3,3,0,0,1,2.89,2.179l1.16,4.091h6.66A13.107,13.107,0,0,0,308.66,436.291Zm-6.96-18.46v-2.29l-4.78-1.439a2.987,2.987,0,0,1-2-1.98,14.838,14.838,0,0,0-1.04-2.5,2.978,2.978,0,0,1,.02-2.811l2.36-4.389-1.62-1.631-4.4,2.36a2.993,2.993,0,0,1-2.82.021,14.185,14.185,0,0,0-2.5-1.04,3.026,3.026,0,0,1-1.979-2l-1.431-4.78h-2.29l-1.44,4.77a2.986,2.986,0,0,1-1.97,2.01,14,14,0,0,0-2.51,1.04,2.992,2.992,0,0,1-2.819-.021l-4.391-2.36-1.62,1.621,2.36,4.39a3,3,0,0,1,.02,2.82,14.277,14.277,0,0,0-1.04,2.51,2.988,2.988,0,0,1-2.01,1.97l-4.77,1.439v2.29l.21.061a19.07,19.07,0,0,1,5.15-.73h5.16c-.01-.16-.02-.31-.02-.48a10.835,10.835,0,0,1,21.67,0c0,.17-.02.32-.02.48h4.43a18.862,18.862,0,0,1,5.54.84Zm-16.55-.669c.01-.16.05-.31.05-.48a4.835,4.835,0,0,0-9.67,0,3.714,3.714,0,0,0,.05.48Zm-24.77,41.419.77-3.47a19.113,19.113,0,0,1-12.72-8.409l-1.909,8.71a7.139,7.139,0,0,0,5.369,8.55,7.109,7.109,0,0,0,8.49-5.381Z" fill="#104386"/>
            <path id="Path_74" data-name="Path 74" d="M313.17,455.432a7.137,7.137,0,0,1-5.37,8.53,7.1,7.1,0,0,1-8.49-5.37l-.76-3.441a19.041,19.041,0,0,0,12.78-8.09Z" fill="#69f"/>
            <path id="Path_75" data-name="Path 75" d="M303.15,433.021a3,3,0,1,1-4.24,0A3.1,3.1,0,0,1,303.15,433.021Z" fill="#104386"/>
            <path id="Path_76" data-name="Path 76" d="M301.7,415.541v2.29l-.55.171a18.862,18.862,0,0,0-5.54-.84h-4.43c0-.16.02-.31.02-.48a10.835,10.835,0,0,0-21.67,0c0,.17.01.32.02.48h-5.16a19.07,19.07,0,0,0-5.15.73l-.21-.061v-2.29l4.77-1.439a2.988,2.988,0,0,0,2.01-1.97,14.277,14.277,0,0,1,1.04-2.51,3,3,0,0,0-.02-2.82l-2.36-4.39,1.62-1.621,4.391,2.36a2.992,2.992,0,0,0,2.819.021,14,14,0,0,1,2.51-1.04,2.986,2.986,0,0,0,1.97-2.01l1.44-4.77h2.29l1.431,4.78a3.026,3.026,0,0,0,1.979,2,14.185,14.185,0,0,1,2.5,1.04,2.993,2.993,0,0,0,2.82-.021l4.4-2.36,1.62,1.631-2.36,4.389a2.978,2.978,0,0,0-.02,2.811,14.838,14.838,0,0,1,1.04,2.5,2.987,2.987,0,0,0,2,1.98Z" fill="#ffffff"/>
            <path id="Path_77" data-name="Path 77" d="M299.03,430.142a3,3,0,1,1-5.12-2.121,3.1,3.1,0,0,1,4.24,0A3.013,3.013,0,0,1,299.03,430.142Z" fill="#104386"/>
            <path id="Path_78" data-name="Path 78" d="M298.15,438.021a3,3,0,1,1-4.24,0A3.1,3.1,0,0,1,298.15,438.021Z" fill="#104386"/>
            <path id="Path_79" data-name="Path 79" d="M294.03,435.142a3,3,0,1,1-5.12-2.121,3.1,3.1,0,0,1,4.24,0A3.013,3.013,0,0,1,294.03,435.142Z" fill="#104386"/>
            <path id="Path_80" data-name="Path 80" d="M269.03,432.142a3,3,0,0,1,0,6h-2a3,3,0,0,1,0-6Z" fill="#104386"/>
            <path id="Path_81" data-name="Path 81" d="M265.53,440.142v2a3,3,0,0,1-6,0v-2a3,3,0,0,1,6,0Z" fill="#104386"/>
            <path id="Path_82" data-name="Path 82" d="M265.53,428.142v2a3,3,0,0,1-6,0v-2a3,3,0,0,1,6,0Z" fill="#104386"/>
            <path id="Path_83" data-name="Path 83" d="M261.15,455.111l-.77,3.47a7.109,7.109,0,0,1-8.49,5.381,7.139,7.139,0,0,1-5.369-8.55l1.909-8.71A19.113,19.113,0,0,0,261.15,455.111Z" fill="#69f"/>
            <path id="Path_84" data-name="Path 84" d="M261.03,435.142a3,3,0,0,1-3,3h-2a3,3,0,1,1,0-6h2A3,3,0,0,1,261.03,435.142Z" fill="#104386"/>
            <path id="Path_85" data-name="Path 85" d="M264.39,423.162h31.22a13.125,13.125,0,0,1,0,26.25h-6.66l-1.16-4.091a3,3,0,0,0-2.89-2.179h-9.81a3,3,0,0,0-2.879,2.179l-1.161,4.091h-6.66a13.125,13.125,0,0,1,0-26.25Zm-3.36,11.98a3,3,0,0,0-3-3h-2a3,3,0,1,0,0,6h2A3,3,0,0,0,261.03,435.142Zm4.5,5a3,3,0,0,0-6,0v2a3,3,0,0,0,6,0Zm-3-7a3,3,0,0,0,3-3v-2a3,3,0,0,0-6,0v2A3,3,0,0,0,262.53,433.142Zm4.5-1a3,3,0,0,0,0,6h2a3,3,0,0,0,0-6Zm29,1a3,3,0,0,0,2.12-5.121,3.1,3.1,0,0,0-4.24,0,3,3,0,0,0,2.12,5.121Zm-2.88-.121a3.1,3.1,0,0,0-4.24,0,3,3,0,1,0,4.24,0Zm5.76,4.241a3,3,0,1,0,4.24-4.241,3.1,3.1,0,0,0-4.24,0,2.995,2.995,0,0,0,0,4.241Zm-.76.759a3.1,3.1,0,0,0-4.24,0,3,3,0,1,0,4.24,0Z" fill="#f60"/>
          </g>
        </g>
      </g>
    </g>
  </g>
</svg>